<svg xmlns="http://www.w3.org/2000/svg" viewBox="0 0 224.55 42.01">
    <title>soflow_logo</title>
    <path d="M474.44,282.9l-2.19,6.31a12.15,12.15,0,1,1-17.36,0l-2.19-6.31a18.38,18.38,0,1,0,21.74,0Z"
          transform="translate(-309.14 -276.2)" style="fill:#fff"></path>
    <path d="M388.28,280.21h22.58v5.63H394.5v8.34h15.42v5.64H394.5v15.37h-6.22Z" transform="translate(-309.14 -276.2)"
          style="fill:#fff"></path>
    <path d="M419.85,280.21h6.22v29.35H441v5.63h-21.1Z" transform="translate(-309.14 -276.2)"
          style="fill:#fff"></path>
    <path
        d="M485.22,280.21H492l6.57,25.2h.1l7.86-25.2h6.12l7.71,25.2h.1l6.86-25.2h6.33l-10.18,35h-5.93l-8.1-26.63h-.1l-8.1,26.63h-5.73Z"
        transform="translate(-309.14 -276.2)" style="fill:#fff"></path>
    <rect x="49.59" y="26.26" width="3.5" height="15.75" style="fill:#fff"></rect>
    <path
        d="M323,293.49c-3.58-1.06-7.81-3-7.64-6v-.27c0-.45.21-4.4,7.47-4.4,2.45,0,4.19.56,5.17,1.67a4.27,4.27,0,0,1,1,2.63h3.7a7.76,7.76,0,0,0-1.84-5c-1.71-2-4.41-3-8-3-8.82,0-11.17,5.09-11.17,8.16C311.46,291.6,315,295,322,297c10.13,3,10.13,6.93,10.13,8.61,0,.29-.11,7.1-9.46,7.1-6.51,0-9.8-2.55-9.8-7.6h-3.71c0,3.4,1.32,11.31,13.51,11.31,10.41,0,13.16-7.07,13.16-10.81C335.81,300,331.75,296.09,323,293.49Z"
        transform="translate(-309.14 -276.2)" style="fill:#fff"></path>
    <rect x="151.32" width="6.22" height="17.51" style="fill:#fff"></rect>
    <path d="M350.35,313.35l1.19-3.44a15.17,15.17,0,1,1,17.86,0l1.19,3.44a18.67,18.67,0,1,0-20.24,0Z"
          transform="translate(-309.14 -276.2)" style="fill:#fff"></path>
    <path d="M474.44,282.9l-2.19,6.31a12.15,12.15,0,1,1-17.36,0l-2.19-6.31a18.38,18.38,0,1,0,21.74,0Z"
          transform="translate(-309.14 -276.2)" style="fill:#fff"></path>
    <path d="M388.28,280.21h22.58v5.63H394.5v8.34h15.42v5.64H394.5v15.37h-6.22Z" transform="translate(-309.14 -276.2)"
          style="fill:#fff"></path>
    <path d="M419.85,280.21h6.22v29.35H441v5.63h-21.1Z" transform="translate(-309.14 -276.2)"
          style="fill:#fff"></path>
    <path
        d="M485.22,280.21H492l6.57,25.2h.1l7.86-25.2h6.12l7.71,25.2h.1l6.86-25.2h6.33l-10.18,35h-5.93l-8.1-26.63h-.1l-8.1,26.63h-5.73Z"
        transform="translate(-309.14 -276.2)" style="fill:#fff"></path>
    <rect x="49.59" y="26.26" width="3.5" height="15.75" style="fill:#fff"></rect>
    <path
        d="M323,293.49c-3.58-1.06-7.81-3-7.64-6v-.27c0-.45.21-4.4,7.47-4.4,2.45,0,4.19.56,5.17,1.67a4.27,4.27,0,0,1,1,2.63h3.7a7.76,7.76,0,0,0-1.84-5c-1.71-2-4.41-3-8-3-8.82,0-11.17,5.09-11.17,8.16C311.46,291.6,315,295,322,297c10.13,3,10.13,6.93,10.13,8.61,0,.29-.11,7.1-9.46,7.1-6.51,0-9.8-2.55-9.8-7.6h-3.71c0,3.4,1.32,11.31,13.51,11.31,10.41,0,13.16-7.07,13.16-10.81C335.81,300,331.75,296.09,323,293.49Z"
        transform="translate(-309.14 -276.2)" style="fill:#fff"></path>
    <rect x="151.32" width="6.22" height="17.51" style="fill:#fff"></rect>
    <path d="M350.35,313.35l1.19-3.44a15.17,15.17,0,1,1,17.86,0l1.19,3.44a18.67,18.67,0,1,0-20.24,0Z"
          transform="translate(-309.14 -276.2)" style="fill:#fff"></path>
</svg>
